<mxfile host="app.diagrams.net" modified="2023-09-07T17:49:17.027Z" agent="Mozilla/5.0 (Windows NT 10.0; Win64; x64) AppleWebKit/537.36 (KHTML, like Gecko) Chrome/116.0.0.0 Safari/537.36" etag="vnJKAwRmRkyU_HpJfQdO" version="21.7.2" type="github">
  <diagram name="Страница — 1" id="rCxJo5MhZ4vbmWMJt02z">
    <mxGraphModel dx="1195" dy="625" grid="1" gridSize="10" guides="1" tooltips="1" connect="1" arrows="1" fold="1" page="1" pageScale="1" pageWidth="827" pageHeight="1169" math="0" shadow="0">
      <root>
        <mxCell id="0" />
        <mxCell id="1" parent="0" />
        <mxCell id="JILR0RX5SvPw9TXMDlvb-1" value="" style="whiteSpace=wrap;html=1;aspect=fixed;" vertex="1" parent="1">
          <mxGeometry x="140" y="35" width="530" height="530" as="geometry" />
        </mxCell>
        <mxCell id="JILR0RX5SvPw9TXMDlvb-49" style="edgeStyle=orthogonalEdgeStyle;rounded=0;orthogonalLoop=1;jettySize=auto;html=1;exitX=0;exitY=0.5;exitDx=0;exitDy=0;entryX=0.5;entryY=0;entryDx=0;entryDy=0;" edge="1" parent="1" source="JILR0RX5SvPw9TXMDlvb-11" target="JILR0RX5SvPw9TXMDlvb-37">
          <mxGeometry relative="1" as="geometry" />
        </mxCell>
        <mxCell id="JILR0RX5SvPw9TXMDlvb-50" style="edgeStyle=orthogonalEdgeStyle;rounded=0;orthogonalLoop=1;jettySize=auto;html=1;exitX=1;exitY=0.5;exitDx=0;exitDy=0;entryX=0.5;entryY=0;entryDx=0;entryDy=0;" edge="1" parent="1" source="JILR0RX5SvPw9TXMDlvb-11" target="JILR0RX5SvPw9TXMDlvb-29">
          <mxGeometry relative="1" as="geometry" />
        </mxCell>
        <mxCell id="JILR0RX5SvPw9TXMDlvb-52" style="edgeStyle=orthogonalEdgeStyle;rounded=0;orthogonalLoop=1;jettySize=auto;html=1;exitX=0.5;exitY=1;exitDx=0;exitDy=0;entryX=0.5;entryY=0;entryDx=0;entryDy=0;" edge="1" parent="1" source="JILR0RX5SvPw9TXMDlvb-11" target="JILR0RX5SvPw9TXMDlvb-12">
          <mxGeometry relative="1" as="geometry" />
        </mxCell>
        <mxCell id="JILR0RX5SvPw9TXMDlvb-11" value="Будівля" style="rounded=0;whiteSpace=wrap;html=1;" vertex="1" parent="1">
          <mxGeometry x="365" y="60" width="80" height="40" as="geometry" />
        </mxCell>
        <mxCell id="JILR0RX5SvPw9TXMDlvb-53" style="edgeStyle=orthogonalEdgeStyle;rounded=0;orthogonalLoop=1;jettySize=auto;html=1;exitX=0.5;exitY=1;exitDx=0;exitDy=0;entryX=0.5;entryY=0;entryDx=0;entryDy=0;" edge="1" parent="1" source="JILR0RX5SvPw9TXMDlvb-12" target="JILR0RX5SvPw9TXMDlvb-13">
          <mxGeometry relative="1" as="geometry" />
        </mxCell>
        <mxCell id="JILR0RX5SvPw9TXMDlvb-12" value="Хостел" style="rounded=0;whiteSpace=wrap;html=1;" vertex="1" parent="1">
          <mxGeometry x="365" y="120" width="80" height="40" as="geometry" />
        </mxCell>
        <mxCell id="JILR0RX5SvPw9TXMDlvb-54" style="edgeStyle=orthogonalEdgeStyle;rounded=0;orthogonalLoop=1;jettySize=auto;html=1;exitX=0.5;exitY=1;exitDx=0;exitDy=0;entryX=0.5;entryY=0;entryDx=0;entryDy=0;" edge="1" parent="1" source="JILR0RX5SvPw9TXMDlvb-13" target="JILR0RX5SvPw9TXMDlvb-14">
          <mxGeometry relative="1" as="geometry" />
        </mxCell>
        <mxCell id="JILR0RX5SvPw9TXMDlvb-13" value="Міні-готель" style="rounded=0;whiteSpace=wrap;html=1;" vertex="1" parent="1">
          <mxGeometry x="365" y="180" width="80" height="40" as="geometry" />
        </mxCell>
        <mxCell id="JILR0RX5SvPw9TXMDlvb-55" style="edgeStyle=orthogonalEdgeStyle;rounded=0;orthogonalLoop=1;jettySize=auto;html=1;exitX=0.5;exitY=1;exitDx=0;exitDy=0;entryX=0.5;entryY=0;entryDx=0;entryDy=0;" edge="1" parent="1" source="JILR0RX5SvPw9TXMDlvb-14" target="JILR0RX5SvPw9TXMDlvb-15">
          <mxGeometry relative="1" as="geometry" />
        </mxCell>
        <mxCell id="JILR0RX5SvPw9TXMDlvb-14" value="Міський готель" style="rounded=0;whiteSpace=wrap;html=1;" vertex="1" parent="1">
          <mxGeometry x="365" y="240" width="80" height="40" as="geometry" />
        </mxCell>
        <mxCell id="JILR0RX5SvPw9TXMDlvb-56" style="edgeStyle=orthogonalEdgeStyle;rounded=0;orthogonalLoop=1;jettySize=auto;html=1;exitX=0.5;exitY=1;exitDx=0;exitDy=0;entryX=0.5;entryY=0;entryDx=0;entryDy=0;" edge="1" parent="1" source="JILR0RX5SvPw9TXMDlvb-15" target="JILR0RX5SvPw9TXMDlvb-16">
          <mxGeometry relative="1" as="geometry" />
        </mxCell>
        <mxCell id="JILR0RX5SvPw9TXMDlvb-15" value="Апарт-готель" style="rounded=0;whiteSpace=wrap;html=1;" vertex="1" parent="1">
          <mxGeometry x="365" y="300" width="80" height="40" as="geometry" />
        </mxCell>
        <mxCell id="JILR0RX5SvPw9TXMDlvb-57" style="edgeStyle=orthogonalEdgeStyle;rounded=0;orthogonalLoop=1;jettySize=auto;html=1;exitX=0.5;exitY=1;exitDx=0;exitDy=0;entryX=0.5;entryY=0;entryDx=0;entryDy=0;" edge="1" parent="1" source="JILR0RX5SvPw9TXMDlvb-16" target="JILR0RX5SvPw9TXMDlvb-17">
          <mxGeometry relative="1" as="geometry" />
        </mxCell>
        <mxCell id="JILR0RX5SvPw9TXMDlvb-16" value="Бутік-готель" style="rounded=0;whiteSpace=wrap;html=1;" vertex="1" parent="1">
          <mxGeometry x="365" y="360" width="80" height="40" as="geometry" />
        </mxCell>
        <mxCell id="JILR0RX5SvPw9TXMDlvb-58" style="edgeStyle=orthogonalEdgeStyle;rounded=0;orthogonalLoop=1;jettySize=auto;html=1;exitX=0.5;exitY=1;exitDx=0;exitDy=0;entryX=0.5;entryY=0;entryDx=0;entryDy=0;" edge="1" parent="1" source="JILR0RX5SvPw9TXMDlvb-17" target="JILR0RX5SvPw9TXMDlvb-18">
          <mxGeometry relative="1" as="geometry" />
        </mxCell>
        <mxCell id="JILR0RX5SvPw9TXMDlvb-17" value="Бізнес-готель" style="rounded=0;whiteSpace=wrap;html=1;" vertex="1" parent="1">
          <mxGeometry x="365" y="420" width="80" height="40" as="geometry" />
        </mxCell>
        <mxCell id="JILR0RX5SvPw9TXMDlvb-18" value="Готель-курорт" style="rounded=0;whiteSpace=wrap;html=1;" vertex="1" parent="1">
          <mxGeometry x="365" y="480" width="80" height="40" as="geometry" />
        </mxCell>
        <mxCell id="JILR0RX5SvPw9TXMDlvb-60" style="edgeStyle=orthogonalEdgeStyle;rounded=0;orthogonalLoop=1;jettySize=auto;html=1;exitX=0.5;exitY=1;exitDx=0;exitDy=0;entryX=0.5;entryY=0;entryDx=0;entryDy=0;" edge="1" parent="1" source="JILR0RX5SvPw9TXMDlvb-29" target="JILR0RX5SvPw9TXMDlvb-31">
          <mxGeometry relative="1" as="geometry" />
        </mxCell>
        <mxCell id="JILR0RX5SvPw9TXMDlvb-29" value="Жила будівля" style="rounded=0;whiteSpace=wrap;html=1;" vertex="1" parent="1">
          <mxGeometry x="510" y="120" width="80" height="40" as="geometry" />
        </mxCell>
        <mxCell id="JILR0RX5SvPw9TXMDlvb-62" value="" style="edgeStyle=orthogonalEdgeStyle;rounded=0;orthogonalLoop=1;jettySize=auto;html=1;" edge="1" parent="1" source="JILR0RX5SvPw9TXMDlvb-30" target="JILR0RX5SvPw9TXMDlvb-32">
          <mxGeometry relative="1" as="geometry" />
        </mxCell>
        <mxCell id="JILR0RX5SvPw9TXMDlvb-30" value="Офісна будівля" style="rounded=0;whiteSpace=wrap;html=1;" vertex="1" parent="1">
          <mxGeometry x="510" y="240" width="80" height="40" as="geometry" />
        </mxCell>
        <mxCell id="JILR0RX5SvPw9TXMDlvb-61" style="edgeStyle=orthogonalEdgeStyle;rounded=0;orthogonalLoop=1;jettySize=auto;html=1;exitX=0.5;exitY=1;exitDx=0;exitDy=0;entryX=0.5;entryY=0;entryDx=0;entryDy=0;" edge="1" parent="1" source="JILR0RX5SvPw9TXMDlvb-31" target="JILR0RX5SvPw9TXMDlvb-30">
          <mxGeometry relative="1" as="geometry" />
        </mxCell>
        <mxCell id="JILR0RX5SvPw9TXMDlvb-31" value="Службова будівля" style="rounded=0;whiteSpace=wrap;html=1;" vertex="1" parent="1">
          <mxGeometry x="510" y="180" width="80" height="40" as="geometry" />
        </mxCell>
        <mxCell id="JILR0RX5SvPw9TXMDlvb-32" value="Гос будівля" style="rounded=0;whiteSpace=wrap;html=1;" vertex="1" parent="1">
          <mxGeometry x="510" y="300" width="80" height="40" as="geometry" />
        </mxCell>
        <mxCell id="JILR0RX5SvPw9TXMDlvb-47" style="edgeStyle=orthogonalEdgeStyle;rounded=0;orthogonalLoop=1;jettySize=auto;html=1;exitX=0;exitY=1;exitDx=0;exitDy=0;entryX=0.5;entryY=0;entryDx=0;entryDy=0;" edge="1" parent="1" source="JILR0RX5SvPw9TXMDlvb-37" target="JILR0RX5SvPw9TXMDlvb-38">
          <mxGeometry relative="1" as="geometry" />
        </mxCell>
        <mxCell id="JILR0RX5SvPw9TXMDlvb-48" style="edgeStyle=orthogonalEdgeStyle;rounded=0;orthogonalLoop=1;jettySize=auto;html=1;exitX=1;exitY=1;exitDx=0;exitDy=0;entryX=0.5;entryY=0;entryDx=0;entryDy=0;" edge="1" parent="1" source="JILR0RX5SvPw9TXMDlvb-37" target="JILR0RX5SvPw9TXMDlvb-39">
          <mxGeometry relative="1" as="geometry" />
        </mxCell>
        <mxCell id="JILR0RX5SvPw9TXMDlvb-37" value="Учбова будівля" style="rounded=0;whiteSpace=wrap;html=1;" vertex="1" parent="1">
          <mxGeometry x="200" y="120" width="80" height="40" as="geometry" />
        </mxCell>
        <mxCell id="JILR0RX5SvPw9TXMDlvb-38" value="Школа" style="rounded=0;whiteSpace=wrap;html=1;" vertex="1" parent="1">
          <mxGeometry x="150" y="180" width="80" height="40" as="geometry" />
        </mxCell>
        <mxCell id="JILR0RX5SvPw9TXMDlvb-39" value="Університет" style="rounded=0;whiteSpace=wrap;html=1;" vertex="1" parent="1">
          <mxGeometry x="260" y="180" width="80" height="40" as="geometry" />
        </mxCell>
      </root>
    </mxGraphModel>
  </diagram>
</mxfile>
